<svg id="svg" version="1.1" xmlns="http://www.w3.org/2000/svg" xmlns:xlink="http://www.w3.org/1999/xlink" width="400" height="400" viewBox="0, 0, 400,400"><g id="svgg"><path id="path0" d="M192.996 88.299 C 173.418 108.043,147.031 134.638,134.358 147.399 C 87.005 195.078,82.800 199.345,82.800 199.720 C 82.800 200.184,126.373 244.152,126.991 244.312 C 127.229 244.374,132.727 239.064,139.207 232.512 C 152.006 219.573,231.972 138.931,267.400 103.235 C 279.500 91.044,294.710 75.719,301.200 69.180 C 307.690 62.641,314.074 56.191,315.387 54.846 L 317.775 52.400 273.183 52.400 L 228.592 52.400 192.996 88.299 M228.746 188.806 C 227.622 189.463,149.999 267.323,150.020 267.774 C 150.030 268.008,160.074 278.347,172.338 290.748 L 194.638 313.296 217.019 290.825 C 229.328 278.466,239.470 268.140,239.556 267.877 C 239.641 267.615,248.471 258.580,259.178 247.800 C 310.434 196.193,317.009 189.520,317.129 188.980 C 317.285 188.281,229.938 188.110,228.746 188.806 " stroke="none" fill="#35c9fb" fill-rule="evenodd"></path><path id="path1" d="M217.232 290.658 C 205.086 302.861,195.205 312.991,195.274 313.168 C 195.343 313.345,202.789 320.985,211.820 330.145 L 228.240 346.800 272.753 346.800 C 298.604 346.800,317.211 346.651,317.133 346.444 C 316.935 345.914,240.302 268.848,239.771 268.644 C 239.521 268.548,229.379 278.454,217.232 290.658 " stroke="none" fill="#04539b" fill-rule="evenodd"></path><path id="path2" d="M48.000 0.293 C 47.010 0.380,46.029 0.619,45.820 0.825 C 45.611 1.031,44.846 1.200,44.120 1.200 C 43.394 1.200,42.800 1.380,42.800 1.600 C 42.800 1.820,42.361 2.000,41.824 2.000 C 41.287 2.000,40.736 2.180,40.600 2.400 C 40.464 2.620,39.823 2.800,39.176 2.800 C 38.529 2.800,38.000 2.980,38.000 3.200 C 38.000 3.420,37.640 3.600,37.200 3.600 C 36.760 3.600,36.400 3.780,36.400 4.000 C 36.400 4.220,35.860 4.400,35.200 4.400 C 34.540 4.400,34.000 4.580,34.000 4.800 C 34.000 5.020,33.640 5.200,33.200 5.200 C 32.760 5.200,32.400 5.380,32.400 5.600 C 32.400 5.820,32.040 6.000,31.600 6.000 C 31.160 6.000,30.800 6.180,30.800 6.400 C 30.800 6.620,30.530 6.800,30.200 6.800 C 29.870 6.800,29.600 6.980,29.600 7.200 C 29.600 7.420,29.330 7.600,29.000 7.600 C 28.670 7.600,28.400 7.780,28.400 8.000 C 28.400 8.220,28.034 8.400,27.587 8.400 C 27.141 8.400,26.671 8.670,26.545 9.000 C 26.418 9.330,26.109 9.600,25.857 9.600 C 25.606 9.601,24.877 10.051,24.238 10.600 C 23.599 11.150,22.919 11.600,22.727 11.600 C 22.250 11.600,11.600 22.282,11.600 22.761 C 11.600 22.971,11.375 23.381,11.100 23.671 C 9.864 24.978,8.400 27.202,8.400 27.773 C 8.400 28.118,8.220 28.400,8.000 28.400 C 7.780 28.400,7.600 28.670,7.600 29.000 C 7.600 29.330,7.420 29.600,7.200 29.600 C 6.980 29.600,6.800 29.870,6.800 30.200 C 6.800 30.530,6.620 30.800,6.400 30.800 C 6.180 30.800,6.000 31.139,6.000 31.554 C 6.000 32.537,4.997 34.464,4.661 34.127 C 4.517 33.984,4.400 34.336,4.400 34.910 C 4.400 35.483,4.220 36.064,4.000 36.200 C 3.780 36.336,3.600 36.797,3.600 37.224 C 3.600 37.651,3.420 38.000,3.200 38.000 C 2.980 38.000,2.800 38.529,2.800 39.176 C 2.800 39.823,2.620 40.464,2.400 40.600 C 2.180 40.736,2.000 41.287,2.000 41.824 C 2.000 42.361,1.820 42.800,1.600 42.800 C 1.380 42.800,1.200 43.394,1.200 44.120 C 1.200 44.846,0.975 45.665,0.700 45.940 C -0.035 46.675,-0.035 353.325,0.700 354.060 C 0.975 354.335,1.200 355.053,1.200 355.656 C 1.200 356.259,1.380 356.864,1.600 357.000 C 1.820 357.136,2.000 357.777,2.000 358.424 C 2.000 359.071,2.180 359.600,2.400 359.600 C 2.620 359.600,2.800 360.140,2.800 360.800 C 2.800 361.460,2.980 362.000,3.200 362.000 C 3.420 362.000,3.600 362.360,3.600 362.800 C 3.600 363.240,3.780 363.600,4.000 363.600 C 4.220 363.600,4.400 364.058,4.400 364.617 C 4.400 365.176,4.760 366.020,5.200 366.492 C 5.640 366.964,6.000 367.767,6.000 368.275 C 6.000 368.784,6.180 369.200,6.400 369.200 C 6.620 369.200,6.800 369.470,6.800 369.800 C 6.800 370.130,6.980 370.400,7.200 370.400 C 7.420 370.400,7.600 370.670,7.600 371.000 C 7.600 371.330,7.780 371.600,8.000 371.600 C 8.220 371.600,8.400 371.882,8.400 372.227 C 8.400 372.798,9.864 375.022,11.100 376.329 C 11.375 376.619,11.600 377.029,11.600 377.239 C 11.600 377.718,22.250 388.400,22.727 388.400 C 22.919 388.400,23.599 388.850,24.238 389.400 C 24.877 389.949,25.606 390.399,25.857 390.400 C 26.109 390.400,26.418 390.670,26.545 391.000 C 26.671 391.330,27.141 391.600,27.587 391.600 C 28.034 391.600,28.400 391.780,28.400 392.000 C 28.400 392.220,28.670 392.400,29.000 392.400 C 29.330 392.400,29.600 392.536,29.600 392.702 C 29.600 392.869,30.185 393.244,30.900 393.536 C 33.176 394.466,34.000 394.926,34.000 395.268 C 34.000 395.450,34.540 395.600,35.200 395.600 C 35.860 395.600,36.400 395.780,36.400 396.000 C 36.400 396.220,36.760 396.400,37.200 396.400 C 37.640 396.400,38.000 396.580,38.000 396.800 C 38.000 397.020,38.540 397.200,39.200 397.200 C 39.860 397.200,40.400 397.380,40.400 397.600 C 40.400 397.820,41.041 398.000,41.824 398.000 C 42.607 398.000,43.159 398.143,43.051 398.317 C 42.944 398.491,43.416 398.677,44.101 398.729 C 44.786 398.781,45.611 399.044,45.935 399.312 C 46.808 400.037,353.335 400.025,354.060 399.300 C 354.335 399.025,355.154 398.800,355.880 398.800 C 356.606 398.800,357.200 398.620,357.200 398.400 C 357.200 398.180,357.740 398.000,358.400 398.000 C 359.060 398.000,359.600 397.820,359.600 397.600 C 359.600 397.380,360.140 397.200,360.800 397.200 C 361.460 397.200,362.000 397.020,362.000 396.800 C 362.000 396.580,362.349 396.400,362.776 396.400 C 363.203 396.400,363.664 396.220,363.800 396.000 C 363.936 395.780,364.487 395.600,365.024 395.600 C 365.561 395.600,366.000 395.420,366.000 395.200 C 366.000 394.980,366.278 394.800,366.617 394.800 C 366.956 394.800,367.620 394.440,368.092 394.000 C 368.564 393.560,369.277 393.200,369.675 393.200 C 370.074 393.200,370.400 393.020,370.400 392.800 C 370.400 392.580,370.670 392.400,371.000 392.400 C 371.330 392.400,371.600 392.220,371.600 392.000 C 371.600 391.780,371.882 391.600,372.227 391.600 C 372.798 391.600,375.022 390.136,376.329 388.900 C 376.619 388.625,377.023 388.400,377.225 388.400 C 377.427 388.400,380.024 385.968,382.996 382.996 C 385.968 380.024,388.400 377.427,388.400 377.225 C 388.400 377.023,388.625 376.619,388.900 376.329 C 390.136 375.022,391.600 372.798,391.600 372.227 C 391.600 371.882,391.780 371.600,392.000 371.600 C 392.220 371.600,392.400 371.330,392.400 371.000 C 392.400 370.670,392.580 370.400,392.800 370.400 C 393.020 370.400,393.200 370.147,393.200 369.838 C 393.200 369.081,394.865 366.000,395.274 366.000 C 395.453 366.000,395.600 365.460,395.600 364.800 C 395.600 364.140,395.780 363.600,396.000 363.600 C 396.220 363.600,396.400 363.240,396.400 362.800 C 396.400 362.360,396.580 362.000,396.800 362.000 C 397.020 362.000,397.200 361.460,397.200 360.800 C 397.200 360.140,397.380 359.600,397.600 359.600 C 397.820 359.600,398.000 358.959,398.000 358.176 C 398.000 357.393,398.143 356.841,398.317 356.949 C 398.491 357.056,398.677 356.584,398.729 355.899 C 398.781 355.214,399.044 354.389,399.312 354.065 C 400.026 353.205,400.026 46.795,399.312 45.935 C 399.044 45.611,398.781 44.786,398.729 44.101 C 398.677 43.416,398.491 42.944,398.317 43.051 C 398.143 43.159,398.000 42.607,398.000 41.824 C 398.000 41.041,397.820 40.400,397.600 40.400 C 397.380 40.400,397.200 39.860,397.200 39.200 C 397.200 38.540,397.020 38.000,396.800 38.000 C 396.580 38.000,396.400 37.640,396.400 37.200 C 396.400 36.760,396.220 36.400,396.000 36.400 C 395.780 36.400,395.600 35.860,395.600 35.200 C 395.600 34.540,395.420 34.000,395.200 34.000 C 394.980 34.000,394.800 33.722,394.800 33.383 C 394.800 33.044,394.440 32.380,394.000 31.908 C 393.560 31.436,393.200 30.723,393.200 30.325 C 393.200 29.926,393.020 29.600,392.800 29.600 C 392.580 29.600,392.400 29.330,392.400 29.000 C 392.400 28.670,392.220 28.400,392.000 28.400 C 391.780 28.400,391.600 28.118,391.600 27.773 C 391.600 27.126,390.420 25.394,388.084 22.614 C 387.801 22.276,387.674 22.000,387.803 22.000 C 387.932 22.000,385.824 19.775,383.119 17.056 C 380.413 14.337,378.134 12.168,378.052 12.237 C 377.971 12.306,377.662 12.145,377.366 11.881 C 375.437 10.158,372.842 8.400,372.227 8.400 C 371.882 8.400,371.600 8.220,371.600 8.000 C 371.600 7.780,371.330 7.600,371.000 7.600 C 370.670 7.600,370.400 7.420,370.400 7.200 C 370.400 6.980,370.130 6.800,369.800 6.800 C 369.470 6.800,369.200 6.620,369.200 6.400 C 369.200 6.180,368.784 6.000,368.275 6.000 C 367.767 6.000,367.002 5.685,366.575 5.300 C 366.149 4.915,365.440 4.540,365.000 4.467 C 364.560 4.393,364.029 4.168,363.820 3.967 C 363.611 3.765,363.116 3.600,362.720 3.600 C 362.324 3.600,362.000 3.420,362.000 3.200 C 362.000 2.980,361.471 2.800,360.824 2.800 C 360.177 2.800,359.536 2.620,359.400 2.400 C 359.264 2.180,358.724 2.000,358.200 2.000 C 357.676 2.000,357.136 1.820,357.000 1.600 C 356.864 1.380,356.259 1.200,355.656 1.200 C 355.053 1.200,354.335 0.975,354.060 0.700 C 353.587 0.227,53.312 -0.173,48.000 0.293 M317.800 52.464 C 317.800 53.191,311.607 59.501,245.438 126.192 C 220.777 151.047,191.132 180.927,179.559 192.592 C 167.987 204.256,151.533 220.865,142.994 229.500 C 134.456 238.135,127.284 245.200,127.056 245.200 C 126.462 245.200,82.200 200.376,82.200 199.774 C 82.200 199.218,90.942 190.336,155.590 125.200 C 179.936 100.670,206.143 74.235,213.828 66.455 C 221.513 58.676,228.160 52.162,228.600 51.980 C 230.346 51.258,317.800 51.732,317.800 52.464 M318.200 188.669 C 318.200 188.990,248.773 259.316,240.604 267.270 C 240.086 267.774,240.994 268.713,279.400 307.389 C 319.421 347.692,318.833 347.078,317.947 347.644 C 317.641 347.840,297.747 347.951,272.875 347.897 L 228.350 347.800 204.507 323.800 C 191.393 310.600,173.674 292.761,165.132 284.157 C 156.103 275.063,149.600 268.209,149.600 267.785 C 149.600 267.259,214.605 201.541,227.777 188.751 C 228.736 187.821,318.200 187.739,318.200 188.669 " stroke="none" fill="#ebebeb" fill-rule="evenodd"></path><path id="path3" d="M228.600 51.980 C 228.160 52.162,221.513 58.676,213.828 66.455 C 206.143 74.235,179.936 100.670,155.590 125.200 C 90.942 190.336,82.200 199.218,82.200 199.774 C 82.200 200.376,126.462 245.200,127.056 245.200 C 127.284 245.200,134.456 238.135,142.994 229.500 C 151.533 220.865,167.987 204.256,179.559 192.592 C 191.132 180.927,220.777 151.047,245.438 126.192 C 311.607 59.501,317.800 53.191,317.800 52.464 C 317.800 51.732,230.346 51.258,228.600 51.980 M315.387 54.846 C 314.074 56.191,307.690 62.641,301.200 69.180 C 294.710 75.719,279.500 91.044,267.400 103.235 C 231.972 138.931,152.006 219.573,139.207 232.512 C 132.727 239.064,127.229 244.374,126.991 244.312 C 126.373 244.152,82.800 200.184,82.800 199.720 C 82.800 199.345,87.005 195.078,134.358 147.399 C 147.031 134.638,173.418 108.043,192.996 88.299 L 228.592 52.400 273.183 52.400 L 317.775 52.400 315.387 54.846 M227.777 188.751 C 214.605 201.541,149.600 267.259,149.600 267.785 C 149.600 268.209,156.104 275.052,165.161 284.157 C 173.719 292.761,183.905 303.040,187.797 307.000 C 191.688 310.960,194.811 313.987,194.736 313.727 C 194.661 313.467,184.610 303.138,172.400 290.775 C 160.190 278.411,150.149 268.087,150.087 267.834 C 149.970 267.356,227.559 189.464,228.830 188.784 C 230.133 188.086,317.286 188.279,317.129 188.980 C 317.008 189.524,306.756 199.926,259.122 247.836 C 238.806 268.270,239.260 267.784,240.150 268.126 C 240.453 268.242,240.678 268.108,240.650 267.829 C 240.623 267.549,258.060 249.729,279.400 228.229 C 300.740 206.728,318.200 188.926,318.200 188.669 C 318.200 187.739,228.736 187.821,227.777 188.751 M260.600 288.800 C 267.197 295.400,272.685 300.800,272.795 300.800 C 272.905 300.800,267.597 295.400,261.000 288.800 C 254.403 282.200,248.915 276.800,248.805 276.800 C 248.695 276.800,254.003 282.200,260.600 288.800 M213.200 332.600 C 221.448 340.850,228.286 347.600,228.396 347.600 C 228.506 347.600,221.848 340.850,213.600 332.600 C 205.352 324.350,198.514 317.600,198.404 317.600 C 198.294 317.600,204.952 324.350,213.200 332.600 M312.394 340.900 C 315.361 343.925,317.836 346.400,317.894 346.400 C 318.181 346.400,317.609 345.806,312.500 340.794 L 307.000 335.400 312.394 340.900 M251.331 347.900 C 263.613 347.959,283.593 347.959,295.731 347.900 C 307.869 347.841,297.820 347.793,273.400 347.793 C 248.980 347.793,239.049 347.841,251.331 347.900 " stroke="none" fill="#8bd4ef" fill-rule="evenodd"></path><path id="path4" d="M239.600 268.100 C 239.600 268.155,257.053 285.750,278.384 307.200 C 299.715 328.650,317.175 346.335,317.184 346.500 C 317.193 346.665,297.185 346.800,272.721 346.800 L 228.243 346.800 211.671 329.984 C 202.556 320.735,194.994 313.272,194.867 313.400 C 194.739 313.527,202.276 321.274,211.616 330.616 L 228.596 347.600 273.298 347.600 C 308.797 347.600,317.998 347.497,317.993 347.100 C 317.984 346.538,307.988 336.356,267.730 295.900 C 243.039 271.088,239.600 267.690,239.600 268.100 " stroke="none" fill="#749cc4" fill-rule="evenodd"></path></g></svg>